<svg width="46" height="12" viewBox="0 0 46 12" fill="none" xmlns="http://www.w3.org/2000/svg">
<path opacity="0.7" d="M9.96307 5.90909C9.96307 6.99621 9.7642 7.93087 9.36648 8.71307C8.96875 9.49195 8.42353 10.0919 7.73082 10.5128C7.04143 10.9304 6.25758 11.1392 5.37926 11.1392C4.49763 11.1392 3.71046 10.9304 3.01776 10.5128C2.32836 10.0919 1.7848 9.49029 1.38707 8.7081C0.989347 7.9259 0.790483 6.9929 0.790483 5.90909C0.790483 4.82197 0.989347 3.88897 1.38707 3.11008C1.7848 2.32789 2.32836 1.72798 3.01776 1.31037C3.71046 0.889441 4.49763 0.678977 5.37926 0.678977C6.25758 0.678977 7.04143 0.889441 7.73082 1.31037C8.42353 1.72798 8.96875 2.32789 9.36648 3.11008C9.7642 3.88897 9.96307 4.82197 9.96307 5.90909ZM8.44176 5.90909C8.44176 5.08049 8.30753 4.38281 8.03906 3.81605C7.77391 3.24598 7.40933 2.8151 6.94531 2.52344C6.48461 2.22846 5.96259 2.08097 5.37926 2.08097C4.79261 2.08097 4.26894 2.22846 3.80824 2.52344C3.34754 2.8151 2.98295 3.24598 2.71449 3.81605C2.44934 4.38281 2.31676 5.08049 2.31676 5.90909C2.31676 6.73769 2.44934 7.43703 2.71449 8.0071C2.98295 8.57386 3.34754 9.00473 3.80824 9.29972C4.26894 9.59138 4.79261 9.73722 5.37926 9.73722C5.96259 9.73722 6.48461 9.59138 6.94531 9.29972C7.40933 9.00473 7.77391 8.57386 8.03906 8.0071C8.30753 7.43703 8.44176 6.73769 8.44176 5.90909ZM11.7591 11V3.36364H13.1958V4.5767H13.2754C13.4146 4.16572 13.6599 3.84257 14.0112 3.60724C14.3658 3.36861 14.7669 3.24929 15.2143 3.24929C15.3071 3.24929 15.4165 3.2526 15.5424 3.25923C15.6717 3.26586 15.7728 3.27415 15.8457 3.28409V4.70597C15.786 4.68939 15.68 4.67116 15.5275 4.65128C15.3751 4.62808 15.2226 4.61648 15.0701 4.61648C14.7188 4.61648 14.4056 4.69105 14.1305 4.8402C13.8587 4.98603 13.6433 5.18987 13.4842 5.4517C13.3251 5.71023 13.2456 6.00521 13.2456 6.33665V11H11.7591ZM19.7173 11.1491C19.1009 11.1491 18.5507 10.9917 18.0668 10.6768C17.5862 10.3587 17.2083 9.90625 16.9332 9.3196C16.6615 8.72964 16.5256 8.02202 16.5256 7.19673C16.5256 6.37145 16.6631 5.66548 16.9382 5.07884C17.2166 4.49219 17.5978 4.04309 18.0817 3.73153C18.5656 3.41998 19.1141 3.2642 19.7273 3.2642C20.2012 3.2642 20.5824 3.34375 20.8707 3.50284C21.1624 3.65862 21.3878 3.84091 21.5469 4.04972C21.7093 4.25852 21.8352 4.44247 21.9247 4.60156H22.0142V0.818182H23.5007V11H22.049V9.81179H21.9247C21.8352 9.9742 21.706 10.1598 21.5369 10.3686C21.3712 10.5774 21.1425 10.7597 20.8509 10.9155C20.5592 11.0713 20.1813 11.1491 19.7173 11.1491ZM20.0455 9.88139C20.473 9.88139 20.8343 9.7687 21.1293 9.54332C21.4276 9.31463 21.6529 8.99811 21.8054 8.59375C21.9612 8.18939 22.0391 7.71875 22.0391 7.18182C22.0391 6.65151 21.9628 6.1875 21.8104 5.78977C21.6579 5.39205 21.4342 5.08215 21.1392 4.86009C20.8442 4.63802 20.4796 4.52699 20.0455 4.52699C19.598 4.52699 19.2251 4.64299 18.9268 4.875C18.6286 5.10701 18.4032 5.42353 18.2507 5.82457C18.1016 6.22562 18.027 6.67803 18.027 7.18182C18.027 7.69223 18.1032 8.15128 18.2557 8.55895C18.4081 8.96662 18.6335 9.28977 18.9318 9.52841C19.2334 9.76373 19.6046 9.88139 20.0455 9.88139ZM28.9135 11.1541C28.1612 11.1541 27.5132 10.9934 26.9696 10.6719C26.4294 10.3471 26.0118 9.89134 25.7168 9.30469C25.4251 8.71473 25.2793 8.02367 25.2793 7.23153C25.2793 6.44934 25.4251 5.75994 25.7168 5.16335C26.0118 4.56676 26.4228 4.10109 26.9498 3.76633C27.4801 3.43158 28.0998 3.2642 28.8091 3.2642C29.24 3.2642 29.6576 3.33546 30.062 3.47798C30.4663 3.6205 30.8292 3.84422 31.1507 4.14915C31.4722 4.45407 31.7258 4.85014 31.9114 5.33736C32.097 5.82126 32.1898 6.40956 32.1898 7.10227V7.62926H26.1195V6.51562H30.7331C30.7331 6.12453 30.6536 5.77817 30.4945 5.47656C30.3354 5.17164 30.1117 4.93134 29.8233 4.75568C29.5383 4.58002 29.2035 4.49219 28.8191 4.49219C28.4015 4.49219 28.0369 4.59493 27.7253 4.80043C27.4171 5.0026 27.1784 5.26776 27.0094 5.59588C26.8437 5.92069 26.7608 6.27367 26.7608 6.65483V7.52486C26.7608 8.03527 26.8503 8.46946 27.0293 8.82741C27.2116 9.18537 27.4651 9.45881 27.79 9.64773C28.1148 9.83333 28.4943 9.92614 28.9284 9.92614C29.2102 9.92614 29.467 9.88636 29.699 9.80682C29.931 9.72396 30.1316 9.60133 30.3006 9.43892C30.4696 9.27652 30.5989 9.07599 30.6884 8.83736L32.0953 9.09091C31.9827 9.50521 31.7805 9.86813 31.4888 10.1797C31.2005 10.4879 30.8375 10.7282 30.4 10.9006C29.9658 11.0696 29.4703 11.1541 28.9135 11.1541ZM33.8391 11V3.36364H35.2759V4.5767H35.3555C35.4947 4.16572 35.7399 3.84257 36.0913 3.60724C36.4459 3.36861 36.8469 3.24929 37.2944 3.24929C37.3872 3.24929 37.4966 3.2526 37.6225 3.25923C37.7518 3.26586 37.8529 3.27415 37.9258 3.28409V4.70597C37.8661 4.68939 37.7601 4.67116 37.6076 4.65128C37.4551 4.62808 37.3027 4.61648 37.1502 4.61648C36.7989 4.61648 36.4857 4.69105 36.2106 4.8402C35.9388 4.98603 35.7234 5.18987 35.5643 5.4517C35.4052 5.71023 35.3256 6.00521 35.3256 6.33665V11H33.8391ZM44.9345 5.22798L43.5872 5.46662C43.5308 5.29427 43.4413 5.13021 43.3187 4.97443C43.1994 4.81865 43.037 4.69105 42.8315 4.59162C42.626 4.49219 42.3691 4.44247 42.0609 4.44247C41.64 4.44247 41.2886 4.53693 41.0069 4.72585C40.7252 4.91146 40.5843 5.15175 40.5843 5.44673C40.5843 5.70194 40.6788 5.90743 40.8677 6.06321C41.0566 6.21899 41.3616 6.34659 41.7825 6.44602L42.9956 6.72443C43.6982 6.88684 44.2219 7.13707 44.5666 7.47514C44.9113 7.81321 45.0836 8.25237 45.0836 8.79261C45.0836 9.25 44.9511 9.65767 44.6859 10.0156C44.4241 10.3703 44.0578 10.6487 43.5872 10.8509C43.1199 11.053 42.5779 11.1541 41.9615 11.1541C41.1064 11.1541 40.4087 10.9718 39.8684 10.6072C39.3282 10.2393 38.9967 9.71733 38.8741 9.04119L40.3109 8.82244C40.4004 9.19697 40.5843 9.48035 40.8627 9.67259C41.1412 9.86151 41.5041 9.95597 41.9515 9.95597C42.4387 9.95597 42.8282 9.85488 43.1199 9.6527C43.4115 9.44721 43.5574 9.19697 43.5574 8.90199C43.5574 8.66335 43.4679 8.46283 43.2889 8.30043C43.1132 8.13802 42.8431 8.01539 42.4785 7.93253L41.1859 7.64915C40.4733 7.48674 39.9463 7.22822 39.6049 6.87358C39.2669 6.51894 39.0978 6.06984 39.0978 5.52628C39.0978 5.07552 39.2238 4.68111 39.4757 4.34304C39.7276 4.00497 40.0756 3.74148 40.5197 3.55256C40.9638 3.36032 41.4726 3.2642 42.046 3.2642C42.8713 3.2642 43.5209 3.44318 43.9949 3.80114C44.4688 4.15578 44.782 4.63139 44.9345 5.22798Z" fill="black"/>
</svg>
